<svg xmlns="http://www.w3.org/2000/svg" xmlns:xlink="http://www.w3.org/1999/xlink" width="190" height="90" viewBox="0 0 325 155">
  <defs>
    <linearGradient id="linear-gradient" x1="0.651" y1="0.321" x2="0.894" y2="0.747" gradientUnits="objectBoundingBox">
      <stop offset="0" stop-color="#f6b211"/>
      <stop offset="1" stop-color="#c21706"/>
    </linearGradient>
    <linearGradient id="linear-gradient-2" x1="0.459" y1="0.436" x2="0.819" y2="1.092" xlink:href="#linear-gradient"/>
    <linearGradient id="linear-gradient-3" x1="0.799" y1="0.238" x2="0.433" y2="1" gradientUnits="objectBoundingBox">
      <stop offset="0" stop-color="#b00f1e"/>
      <stop offset="1" stop-color="#f98828"/>
    </linearGradient>
    <linearGradient id="linear-gradient-4" x1="0.34" y1="0.044" x2="1" y2="0.5" xlink:href="#linear-gradient"/>
    <clipPath id="clip-light_Grili">
      <rect width="325" height="155"/>
    </clipPath>
  </defs>
  <g id="light_Grili" data-name="light Grili" clip-path="url(#clip-light_Grili)">
    <path id="Path_12" data-name="Path 12" d="M29.622,107.884A48.487,48.487,0,0,1,14.851,28.266C12.839,30.586,9.784,36,7.5,42.878A57.725,57.725,0,0,0,4.676,67.632C6.242,80.323,12.787,90.78,24.134,98.715c7.78,4.621,15.614,6.963,23.286,6.963a38.213,38.213,0,0,0,18.5-4.857,32.989,32.989,0,0,0,6.765-4.857l.006-.02a12.127,12.127,0,0,1-1.745-2.635,11.2,11.2,0,0,1-.92-7.429,24.171,24.171,0,0,1,3.361-7.911,47,47,0,0,1,4.973-6.234,7.6,7.6,0,0,1,4.657-2.106,4.49,4.49,0,0,1,1.879.41l.773.349.007,0a36.542,36.542,0,0,1,5.559,2.933,30.749,30.749,0,0,1,6.644,6.049s.294.39.652.986q-.022-.074-.042-.148-.131-.586-.26-1.105a4.247,4.247,0,0,1-.131-1.04,5.972,5.972,0,0,1,.715-2.762,6.241,6.241,0,0,1,1.624-1.885,6.665,6.665,0,0,1,2.178-1.1,8.286,8.286,0,0,1,2.372-.358,6.908,6.908,0,0,1,3.445.878,4.051,4.051,0,0,1,2.014,2.372,3.516,3.516,0,0,1-.032,1.95,5.558,5.558,0,0,1-1.4,2.21,1.853,1.853,0,0,0-.358,1.235,6.4,6.4,0,0,0,.292,2.015,10.142,10.142,0,0,0,4,3.185,13.658,13.658,0,0,0,4.972,1.235,10.819,10.819,0,0,0,4.355-1.983,29.179,29.179,0,0,0,4.387-3.965,48.516,48.516,0,0,0,4.192-5.3q2.016-2.924,3.705-5.98l3.575-6.37.455-.845.845-1.495a41.27,41.27,0,0,1-9.328,5.3,25.8,25.8,0,0,1-9.718,1.983,25.312,25.312,0,0,1-7.67-1.235,26.961,26.961,0,0,1-13.357-9.425,22.056,22.056,0,0,1-1.807-2.775c1.065,3.426.474,8.424-3.91,15.781,0,0-.524.8-.569,0-.045-4.239-.134-14.012-2.08-14.062s-1.714,7.9-2.876,13.112c-.108.545-.491.072-.548,0-5.451-6.374-4.961-17.648.294-19.084A64.475,64.475,0,0,0,79.8,33.964,18.63,18.63,0,0,1,74.5,27.105q-.325-.649-.553-1.235a13.174,13.174,0,0,1-.423-1.3,13.034,13.034,0,0,1-.357-6.825,11.924,11.924,0,0,1,2.8-5.362,13.688,13.688,0,0,1,5.167-3.478,18.38,18.38,0,0,1,6.826-1.235,24.516,24.516,0,0,1,4.549.455A24.138,24.138,0,0,1,97.383,9.62a5,5,0,0,1,1.69,1.2,3.741,3.741,0,0,1,.779,1.333,1.619,1.619,0,0,1-.422,1.787q-.748.683-2.828.1a9.588,9.588,0,0,0-2.925-.454,11.647,11.647,0,0,0-4.842,1.072,11.4,11.4,0,0,0-4,2.958A10.152,10.152,0,0,0,82.627,22a9.371,9.371,0,0,0,.391,5.3,11.966,11.966,0,0,0,4.614,4.907,25.1,25.1,0,0,0,7.6,3.088,35.367,35.367,0,0,1,5.46-12.61,47.017,47.017,0,0,1,9.848-10.5,58.531,58.531,0,0,1,12.9-7.67A57.222,57.222,0,0,1,138.137.325Q139.177.2,140.217.1t2.21-.1a28.583,28.583,0,0,1,5.915.617,21.24,21.24,0,0,1,5.428,1.918,16.01,16.01,0,0,1,4.354,3.282,11.323,11.323,0,0,1,2.633,4.778q.131.585.228,1.072t.163,1.008a14.329,14.329,0,0,1-1.4,8.255,23.173,23.173,0,0,1-5.655,7.085,41.611,41.611,0,0,1-8.938,5.818,69.221,69.221,0,0,1-11.18,4.323,90.478,90.478,0,0,1-12.448,2.7,88.492,88.492,0,0,1-12.772.942h-2.146a23.8,23.8,0,0,0,.651,8.06,14.8,14.8,0,0,0,1.885,4.063,12.555,12.555,0,0,0,3.12,3.217,14.421,14.421,0,0,0,4.42,2.112,20.463,20.463,0,0,0,5.785.747q1.04,0,3.444-.259a20.83,20.83,0,0,0,5.656-1.625,32.521,32.521,0,0,0,7.052-4.29,39.946,39.946,0,0,0,7.7-8.32l.455-1.105a4.826,4.826,0,0,1,2.534-2.86,10.116,10.116,0,0,1,4.03-.454,14.925,14.925,0,0,1,3.8.617,2.862,2.862,0,0,1,1.918,2.047,5,5,0,0,1,.13,1.2,4.825,4.825,0,0,1-.325,1.592l-.065.131q-3.12,6.045-5.265,10.27T150,63.993q-1.4,2.828-2.178,4.42t-1.17,2.438c-.26.563-.422.921-.487,1.072a1.049,1.049,0,0,0-.1.293l-.585.976a79.678,79.678,0,0,1-5.655,8.059,40.945,40.945,0,0,1-6.143,6.24,28.041,28.041,0,0,1-6.663,4.063,20.079,20.079,0,0,1-7.215,1.593q-.427.015-.852.015a23.439,23.439,0,0,1-6.3-.86,24.793,24.793,0,0,1-6.37-2.73,20.99,20.99,0,0,1-4.94-4.161,14.721,14.721,0,0,1-1.582-2.2,3.764,3.764,0,0,1-.19,2.668C98.2,88.421,93.394,95.2,88.07,98.8a11.2,11.2,0,0,1-6.323,2.065,9.381,9.381,0,0,1-2.335-.292,48.565,48.565,0,0,1-49.79,7.312ZM95.968,81.246a1.116,1.116,0,0,0-1.008.777,52.813,52.813,0,0,1-8.216,11.321,21.016,21.016,0,0,1-3.613,3.076,1.479,1.479,0,0,0-.215,1.494.955.955,0,0,0,.857.494,1.273,1.273,0,0,0,.865-.37,3.666,3.666,0,0,1,.526-.464c1.557-1.265,6.294-5.114,11.358-14.492a1.456,1.456,0,0,0,.127-1.464.777.777,0,0,0-.678-.373Zm-5.193-3.632a83.693,83.693,0,0,1-10.88,16.294,1.273,1.273,0,0,0-.2,1.3.913.913,0,0,0,.814.451,1.153,1.153,0,0,0,.948-.518c.044-.068.179-.219.4-.469,1.364-1.517,5.517-6.133,10.7-15.881a1.473,1.473,0,0,0,.121-1.421.915.915,0,0,0-.8-.413A1.307,1.307,0,0,0,90.775,77.614ZM85.48,76.044C79.412,87.755,76.132,91.418,76.1,91.453a1.45,1.45,0,0,0-.211,1.467.851.851,0,0,0,.744.452.984.984,0,0,0,.806-.468c.04-.063.14-.189.291-.378a102.974,102.974,0,0,0,9.5-15.224,1.512,1.512,0,0,0,.117-1.467.932.932,0,0,0-.81-.427A1.237,1.237,0,0,0,85.48,76.044Zm-5.011-1.823L72.958,88.349a1,1,0,1,0,1.766.939l7.511-14.126a1,1,0,0,0-.413-1.353,1,1,0,0,0-1.353.413Zm13.191-24.4a10.464,10.464,0,0,1,2.768,2.758,24.731,24.731,0,0,1-.932-2.724,23.665,23.665,0,0,1-.779-3.965q-.131-1.365-.26-2.762a13.917,13.917,0,0,1,0-2.7A43.243,43.243,0,0,1,87.9,38.475,73.31,73.31,0,0,1,93.66,49.822ZM141.127,5.916q-.779.065-1.56.194a33.861,33.861,0,0,0-11.635,4,42.988,42.988,0,0,0-9.49,7.248,43.5,43.5,0,0,0-6.988,9.262,40.218,40.218,0,0,0-4.063,10.043h.39a69.438,69.438,0,0,0,10.011-.748,74.888,74.888,0,0,0,9.977-2.145,64.306,64.306,0,0,0,9.2-3.413,40.6,40.6,0,0,0,7.7-4.583A24.53,24.53,0,0,0,150.1,20.15a14.324,14.324,0,0,0,2.47-6.565,3.931,3.931,0,0,0-.032-1.138q-.1-.552-.227-1.073A6.426,6.426,0,0,0,148.9,7.28a13.345,13.345,0,0,0-6.338-1.43Q141.908,5.85,141.127,5.916ZM252.473,72.671a14.779,14.779,0,0,1-2.893-.455,2.033,2.033,0,0,1-1.463-1.56,2.558,2.558,0,0,1-.032-1.073,6.18,6.18,0,0,1,.357-1.2l2.464-5.675-.124.15a48.843,48.843,0,0,1-4.777,5.071,24.172,24.172,0,0,1-4,2.99,12.879,12.879,0,0,1-3.315,1.4,7.832,7.832,0,0,1-2.665.227,5.1,5.1,0,0,1-2.5-.878,7.781,7.781,0,0,1-1.82-1.755,9.65,9.65,0,0,1-1.17-2.015c-.114-.273-.21-.523-.284-.75q-.433.413-.853.783a25.2,25.2,0,0,1-4.03,2.99,12.879,12.879,0,0,1-3.315,1.4,7.829,7.829,0,0,1-2.665.227,5.41,5.41,0,0,1-2.535-.715,7.782,7.782,0,0,1-1.885-1.527,7.4,7.4,0,0,1-1.2-1.787,6.182,6.182,0,0,1-.411-1.126q-.3.281-.6.541a25.161,25.161,0,0,1-4.03,2.99,12.866,12.866,0,0,1-3.315,1.4,7.829,7.829,0,0,1-2.665.227,5.41,5.41,0,0,1-2.535-.715,7.782,7.782,0,0,1-1.885-1.527,7.4,7.4,0,0,1-1.2-1.787,6.145,6.145,0,0,1-.419-1.157q-.315.3-.621.572a24.169,24.169,0,0,1-4,2.99,12.884,12.884,0,0,1-3.316,1.4,7.829,7.829,0,0,1-2.665.227,5.093,5.093,0,0,1-2.5-.878,7.768,7.768,0,0,1-1.821-1.755,9.69,9.69,0,0,1-1.17-2.015q-.108-.256-.192-.486a29.713,29.713,0,0,1-2.441,2.241,16.156,16.156,0,0,1-3.347,2.146,7.277,7.277,0,0,1-3.413.747,6.442,6.442,0,0,1-3.51-1.138,6.261,6.261,0,0,1-2.275-2.762,6.555,6.555,0,0,1-.194-4.16,24.957,24.957,0,0,1,1.495-3.9l.065.066.26-.585q.39-.845.715-1.625a5.085,5.085,0,0,0,.391-1.495,2.99,2.99,0,0,0-.065-1.625,4.376,4.376,0,0,0-.326-.779l-.325.325V54.8l-.13.194-.325.391-1.04,1.43a2.235,2.235,0,0,1-1.885,1.235,2.544,2.544,0,0,1-1.658-.617,3.013,3.013,0,0,1-1.007-1.528,2.279,2.279,0,0,1,.519-2.274,15.693,15.693,0,0,0,1.3-2.372,2.089,2.089,0,0,0-.26-2.113l-.2-.39-.194-.325v.13q-.131-.324-.292-.682a3.128,3.128,0,0,1-.228-.682,6.577,6.577,0,0,1-.1-.845,3.85,3.85,0,0,1,.13-1.17,4.3,4.3,0,0,1,.617-1.333,6.313,6.313,0,0,1,1.365-1.4,4.94,4.94,0,0,1,2.925-1.1,3.624,3.624,0,0,1,2.762,1.138,5.489,5.489,0,0,1,1.4,2.437c0,.086-.011.228-.032.422a5.042,5.042,0,0,0-.032.553v.455q0,.194.065.13a.136.136,0,0,1-.032.1.256.256,0,0,0-.032.162,1.261,1.261,0,0,0,.162.52,5.151,5.151,0,0,0,.878,1.04.355.355,0,0,1,.163.13.1.1,0,0,0,.1.065l.976.975V49.4q1.039.975,1.885,1.886a11.781,11.781,0,0,1,1.3,1.625,4.56,4.56,0,0,1,.911,1.755,4.8,4.8,0,0,1,.1,1.658,6.4,6.4,0,0,1-.423,1.625q-.324.813-.65,1.593l-.39.845a12.742,12.742,0,0,0-1.105,2.762q-.194.942.131.877a1.894,1.894,0,0,0,.715-.292,8.925,8.925,0,0,0,1.235-.877q.715-.585,1.593-1.43a13.492,13.492,0,0,0,1.657-1.949l1.882-2.838q.9-2.1,2.019-4.378l1.885-3.9a2.787,2.787,0,0,1,1.787-1.658,10,10,0,0,1,2.828-.228,10.786,10.786,0,0,1,2.893.455,2.178,2.178,0,0,1,1.527,1.56,2.792,2.792,0,0,1,.1,1.008,3.712,3.712,0,0,1-.357,1.332l-5,11.635-.065-.065a.933.933,0,0,0,.228.91,1.733,1.733,0,0,0,.878.52,17.446,17.446,0,0,0,1.885-1.04,21.178,21.178,0,0,0,2.015-1.43,18.166,18.166,0,0,0,1.755-1.592,10.749,10.749,0,0,0,1.17-1.4l1.342-2.1q.607-1.67,1.323-3.461,1.235-3.087,2.6-6.175t2.73-6.078q1.365-2.99,2.535-5.46v.066l1.17-2.6,1.235-2.535a3.114,3.114,0,0,1,1.82-1.69,9.172,9.172,0,0,1,2.86-.26,10.919,10.919,0,0,1,2.957.553,2.244,2.244,0,0,1,1.462,1.527,3.012,3.012,0,0,1-.26,2.21q-.39.845-1.364,3.217t-2.275,5.493q-1.3,3.12-2.763,6.565t-2.73,6.533q-1.268,3.087-2.21,5.362t-1.2,2.99a.84.84,0,0,0,.066.845.956.956,0,0,0,.585.455,10.294,10.294,0,0,0,1.852-.976,23.887,23.887,0,0,0,1.983-1.43,21.555,21.555,0,0,0,1.787-1.592,7.991,7.991,0,0,0,1.2-1.462l1.192-1.864q.641-1.778,1.408-3.694,1.235-3.087,2.6-6.175t2.73-6.078q1.365-2.99,2.535-5.46v.066l1.17-2.6,1.235-2.535a3.114,3.114,0,0,1,1.82-1.69,9.172,9.172,0,0,1,2.86-.26,10.919,10.919,0,0,1,2.957.553,2.244,2.244,0,0,1,1.462,1.527,3.012,3.012,0,0,1-.26,2.21q-.39.845-1.364,3.217t-2.275,5.493q-1.3,3.12-2.763,6.565t-2.73,6.533q-1.268,3.087-2.21,5.362t-1.2,2.99a.841.841,0,0,0,.066.845.956.956,0,0,0,.585.455,10.324,10.324,0,0,0,1.852-.976,24.041,24.041,0,0,0,1.983-1.43,21.557,21.557,0,0,0,1.787-1.592,7.991,7.991,0,0,0,1.2-1.462l.892-1.393q.954-2.259,2.163-4.717l1.885-3.9a2.783,2.783,0,0,1,1.787-1.658,10,10,0,0,1,2.828-.228,10.779,10.779,0,0,1,2.892.455,2.179,2.179,0,0,1,1.528,1.56,2.792,2.792,0,0,1,.1,1.008,3.712,3.712,0,0,1-.357,1.332l-5,11.635-.066-.065a.935.935,0,0,0,.228.91,1.741,1.741,0,0,0,.878.52,17.451,17.451,0,0,0,1.885-1.04,21.291,21.291,0,0,0,2.015-1.43,18.164,18.164,0,0,0,1.755-1.592,10.823,10.823,0,0,0,1.17-1.4l2.214-3.461a3.769,3.769,0,0,1,.385-1.284,24.875,24.875,0,0,1,1.658-2.6,21.9,21.9,0,0,1,2.015-2.4,17.679,17.679,0,0,1,2.275-1.983,10.027,10.027,0,0,1,2.437-1.333,6.13,6.13,0,0,1,1.95-.325,5.1,5.1,0,0,1,3.25,1.073,5.468,5.468,0,0,1,1.885,2.827,13.317,13.317,0,0,1,2.828-2.274,7.31,7.31,0,0,1,3.217-1.04,8.282,8.282,0,0,1,4.42.975,5.33,5.33,0,0,1,2.73,3.316,5.667,5.667,0,0,1-.325,3.835l-3.7,8.84q-.131.585-.292,1.17a1.858,1.858,0,0,0-.1.845q.131.325.293.13a1.213,1.213,0,0,1,.553-.325,9.324,9.324,0,0,0,1.918-1.072,24.547,24.547,0,0,0,2.08-1.625q1.007-.877,1.852-1.755a13.357,13.357,0,0,0,1.3-1.527l1.732-2.651a21.643,21.643,0,0,1,1.432-2.192l.022-.032.011-.011q.278-.373.574-.736a23.6,23.6,0,0,1,5.59-5,14.588,14.588,0,0,1,6.5-2.373q.715.066,1.495.163a16.2,16.2,0,0,1,1.625.292,4.226,4.226,0,0,1,2.859-1.235,4.483,4.483,0,0,1,3.413,1.2,7.2,7.2,0,0,1,1.658,3.218,7.587,7.587,0,0,1,.065,3.835,29.428,29.428,0,0,1-1.235,4.225,1.415,1.415,0,0,0,.454.066,3.729,3.729,0,0,0,2.243-.943,10.451,10.451,0,0,0,2.177-2.372,1.036,1.036,0,0,1,1.2-.487,3.948,3.948,0,0,1,1.593.747,4.6,4.6,0,0,1,1.235,1.365,1.327,1.327,0,0,1,.13,1.365,10.958,10.958,0,0,1-3.8,4,7.034,7.034,0,0,1-3.8.877,9.24,9.24,0,0,1-2.925-.585q-.39.716-.813,1.365t-.813,1.17a26.789,26.789,0,0,1-2.957,3.25,25.841,25.841,0,0,1-3.738,2.925,20.724,20.724,0,0,1-4.16,2.08,11.079,11.079,0,0,1-4.16.715,7.728,7.728,0,0,1-3.056-.715,8.84,8.84,0,0,1-2.372-1.625,11.357,11.357,0,0,1-1.723-2.113,9.005,9.005,0,0,1-.768-1.487q-.672.649-1.312,1.194a27.075,27.075,0,0,1-4.03,2.925,12.847,12.847,0,0,1-3.315,1.4,11.588,11.588,0,0,1-2.665.357,6.481,6.481,0,0,1-2.568-.357,6.591,6.591,0,0,1-1.983-1.138,5.863,5.863,0,0,1-1.364-1.657,6.673,6.673,0,0,1-.716-1.918,8.015,8.015,0,0,1-.032-3.445,23.808,23.808,0,0,1,1.2-3.315l.26-.585v.065q.39-.975.78-1.983t.845-1.982l.065.065,1.625-3.9q.2-.389-.422.228t-1.69,1.787q-1.072,1.17-2.34,2.731t-2.372,3.119l-.26.455q-.52,1.3-1.17,2.633t-1.364,2.828l-.78,1.625L258,69.1l-.78,1.624a2.992,2.992,0,0,1-1.787,1.787,7.278,7.278,0,0,1-1.876.2Q253.052,72.71,252.473,72.671Zm45.013-20.313a11.11,11.11,0,0,0-1.852,1.918,14.245,14.245,0,0,0-1.4,2.112,14.864,14.864,0,0,0-1.008,2.275,9.44,9.44,0,0,0-.487,2.112,3.817,3.817,0,0,0,.162,1.69,2.509,2.509,0,0,0,.617,1.073,1.863,1.863,0,0,0,1.462.357,4.112,4.112,0,0,0,1.95-.52,9.813,9.813,0,0,0,1.918-1.365,14.194,14.194,0,0,0,1.787-1.949,22.116,22.116,0,0,0,1.56-2.34,14.1,14.1,0,0,1-1.138-1.885,11.93,11.93,0,0,1-.813-2.145q-.194-.651-.357-1.267t-.292-1.268A7.159,7.159,0,0,0,297.485,52.358Zm7.377-2.34a6.34,6.34,0,0,0-.26,1.333,9.645,9.645,0,0,0,.325-1.105,2.684,2.684,0,0,1,.325-.91Q305.058,49.4,304.862,50.018ZM241.1,43.29a5.381,5.381,0,0,1-1.69-2.73,5.469,5.469,0,0,1-.065-2.5,3.566,3.566,0,0,1,1.3-2.048h-.066a5.247,5.247,0,0,1,3.641-1.495,6.147,6.147,0,0,1,2.209.423,6.807,6.807,0,0,1,2.015,1.2,6.013,6.013,0,0,1,1.625,2.665,4.816,4.816,0,0,1,.1,2.535,4.426,4.426,0,0,1-1.2,2.145,5.383,5.383,0,0,1-3.77,1.43A5.99,5.99,0,0,1,241.1,43.29Zm-49.92,0a5.379,5.379,0,0,1-1.689-2.73,5.457,5.457,0,0,1-.066-2.5,3.571,3.571,0,0,1,1.3-2.048h-.065a5.245,5.245,0,0,1,3.64-1.495,6.152,6.152,0,0,1,2.21.423,6.83,6.83,0,0,1,2.015,1.2,6.019,6.019,0,0,1,1.624,2.665,4.816,4.816,0,0,1,.1,2.535,4.419,4.419,0,0,1-1.2,2.145,5.381,5.381,0,0,1-3.77,1.43A5.991,5.991,0,0,1,191.177,43.29Z" transform="translate(4 38.305)"/>
    <path id="Path_2" data-name="Path 2" d="M859.941,492.442c-.957,17.689,15.236,22.735,24.494,37.514,8.084,12.9,9.928,36.909-11.427,56.352,10.327-29.561,8.072-43.67,2.551-53.706C867.771,518.441,852.924,514.346,859.941,492.442Z" transform="translate(-810 -465)" fill="url(#linear-gradient)"/>
    <path id="Path_3" data-name="Path 3" d="M878.426,601.432c-52.208,17.4-65.977-39.028-52.664-57.388,4.376,24.415,21.428,10.072,15.165-2.963-3.729-7.811-26.518-23.97-12.223-38.887-4.351,19.06,49.1,32.112,27.223,73.092,31.408-42.223-45.662-62.94-16.036-105.826-8.08,39.156,28.173,42.411,36.049,71.621C883.813,568.7,858.123,590.659,878.426,601.432Z" transform="translate(-810 -465)" fill="url(#linear-gradient-2)"/>
    <path id="Path_10" data-name="Path 10" d="M839.547,538.781c3.344,2.818,23.64,28.408,4.521,37.33-22.55,8.922-25.378-23.933-18.3-32.033,0,0,2.237,15.585,10.895,12.907C844.292,553.1,842.889,543.482,839.547,538.781Z" transform="translate(-810 -465)" fill="url(#linear-gradient-3)"/>
    <path id="Path_11" data-name="Path 11" d="M878.426,601.432c-30.79-13.659-2.025-34.357-9.251-56.675-6.9-21.491-11.632-22.156-15.206-29.954a1.389,1.389,0,0,1,1.183-2.176s17.119,13.492,20.788,28.455C883.813,568.7,858.469,589.213,878.426,601.432Z" transform="translate(-810 -465)" opacity="0.59" fill="url(#linear-gradient-4)"/>
  </g>
</svg>
